<?xml version="1.0" encoding="utf-8"?>
<!-- Generator: Adobe Illustrator 25.4.1, SVG Export Plug-In . SVG Version: 6.00 Build 0)  -->
<svg version="1.1" id="Layer_1" xmlns="http://www.w3.org/2000/svg" xmlns:xlink="http://www.w3.org/1999/xlink" x="0px" y="0px"
	 viewBox="0 0 595.28 841.89" style="enable-background:new 0 0 595.28 841.89;" xml:space="preserve">
<style type="text/css">
	.st0{fill:none;stroke:#000000;stroke-miterlimit:10;}
</style>
<path class="st0" d="M159.31,102.19c13.13,6.97,26.25,13.94,39.38,20.91c16.99,9.02,34.79,18.8,44.72,35.27
	c13.32,22.09,9.21,50.54,17.97,74.8c11.65,32.24,43.46,51.81,72.41,70.17c23.25,14.74,46,30.28,68.19,46.57
	c15.15,11.12,26.46,23.26,38.78,37.13c9.82,11.06,27.25,14,40.92,19.33c37.78,14.74,75.27,30.76,109.98,51.9
	c45.02,27.42,85.66,64.28,109.42,111.33"/>
<path class="st0" d="M288.86,541.33c33.15,20.85,66.3,41.69,99.45,62.54c24.64,15.49,49.34,31.02,75.55,43.68
	c4.53,2.19,10.91,3.86,13.79-0.26c1.18-1.68,1.3-3.86,1.39-5.92c2.22-54.13,4.36-109.19-9.18-161.64
	c-5.18-20.09-12.7-40.3-10.59-60.94"/>
<path class="st0" d="M179.85-103.14c-14.65,14.06-34.04,21.92-50.91,33.25C102.31-52.01,82.43-25.81,65.02,1.14
	c-17.05,26.39-32.5,54.73-37.37,85.77c-3.21,20.48-1.7,41.37-1.5,62.1c0.25,25.5-1.49,51.15,1.97,76.42
	c6.78,49.61,32.6,93.52,51.34,139.16c8.24,20.08,18.62,41.77,14.1,63.25c-5.74,27.28-5.53,56.44-6.1,84.22
	c-0.48,23.71-0.57,47.53,2.74,71.01c3.7,26.2,11.58,51.62,20.2,76.63c11.17,32.43,23.7,64.56,40.79,94.3
	c15.29,26.61,34.08,51.02,52.8,75.34c15.6,20.26,31.2,40.53,46.8,60.79c0.36-5.72-2.32-11.55-6.9-15"/>
<path class="st0" d="M124.75,52.75C147.45,24.3,165.51-7.84,178-42.03c-4.74,23.63-14.46,46.24-28.33,65.95
	c-8.28,11.76-18.13,22.69-23.63,35.98c-5.51,13.29-5.64,30.15,4.31,40.54c8.22,8.57,20.95,10.64,32.72,12.23"/>
<path class="st0" d="M199.68-3.15c6.3,4.36,10.81,10.93,13.85,17.96c3.81,8.84,5.46,18.8,3.42,28.2
	c-2.04,9.41-8.04,18.14-16.69,22.35c-8.06,3.92-18.13,4.02-24.66,10.16c-5.54,5.21-6.95,13.34-8.05,20.87
	c-0.43,2.94-0.84,6.07,0.35,8.79c0.91,2.08,2.66,3.67,4.41,5.11c6.33,5.22,13.43,9.5,21,12.67c9.55,4,20.52,6.73,26.62,15.09"/>
<path class="st0" d="M296.54,383.14c0.62,3.64,2.12,7.13,4.34,10.08c2.14,2.84,6.05,5.31,9.06,3.41c2.18-1.38,2.62-4.31,2.86-6.87
	c0.55-6.11,0.9-12.88-2.88-17.71c-2.03-2.6-10.51-6.28-13.33-4.57C293.77,369.19,295.99,379.88,296.54,383.14z"/>
<path class="st0" d="M468.39,650.63c63.3,41.66,128.27,84.94,170.88,147.61c13.94,20.5,25.52,43.98,24.98,68.77"/>
</svg>
