<?xml version="1.0" encoding="utf-8"?>
<!-- Generator: Adobe Illustrator 25.4.1, SVG Export Plug-In . SVG Version: 6.00 Build 0)  -->
<svg version="1.1" id="Layer_1" xmlns="http://www.w3.org/2000/svg" xmlns:xlink="http://www.w3.org/1999/xlink" x="0px" y="0px"
	 viewBox="0 0 595.28 841.89" style="enable-background:new 0 0 595.28 841.89;" xml:space="preserve">
<style type="text/css">
	.st0{fill:#FFFFFF;stroke:#000000;stroke-miterlimit:10;}
	.st1{fill:#BE1622;stroke:#000000;stroke-miterlimit:10;}
	.st2{fill:#CA9E67;stroke:#000000;stroke-miterlimit:10;}
	.st3{fill:#B17F4A;stroke:#000000;stroke-miterlimit:10;}
	.st4{fill:#432918;stroke:#000000;stroke-miterlimit:10;}
	.st5{stroke:#000000;stroke-miterlimit:10;}
	.st6{fill:#312783;}
	.st7{fill:#F9B233;}
	.st8{fill:#FFED00;}
	.st9{fill:none;}
	.st10{font-family:'MyriadPro-Regular';}
	.st11{font-size:60px;}
</style>
<path class="st0" d="M742,123"/>
<path class="st1" d="M273,240l2,244l207,2C482,486,478,230,273,240z"/>
<path class="st0" d="M67,257"/>
<polygon class="st2" points="237,485 232,166 78,488 "/>
<path class="st3" d="M75,538l404-6c0,0-95,167-214,170S75,538,75,538z"/>
<path class="st0" d="M2,890"/>
<rect x="245" y="100" class="st4" width="18" height="434"/>
<polygon class="st5" points="274,100 405,224 270,227 "/>
<line class="st0" x1="90" y1="572" x2="452" y2="570"/>
<line class="st0" x1="112" y1="604" x2="426" y2="605"/>
<line class="st0" x1="136" y1="634" x2="394" y2="638"/>
<line class="st0" x1="174" y1="667" x2="353" y2="669"/>
<line class="st0" x1="211" y1="690" x2="318" y2="690"/>
<path class="st0" d="M355,756"/>
<g>
	<path class="st6" d="M445.98,730.46c-12.81-7.71-27.8-6.7-41.67-11.05c-7.28-2.29-12.69-7.29-19.18-11.03
		c-6.43-3.7-13.6-5.24-20.99-4.49c-14.77,1.49-30.05,9.33-42.14,17.7c-9.81,6.8-24.52,20.21-16.88,33.4
		c3.22,5.57,11.87,0.54,8.63-5.05c-3.01-5.2,3.99-11.85,7.41-15.02c4.63-4.28,10.06-7.58,15.59-10.56
		c10.96-5.92,25.03-13.5,37.85-9.75c5.76,1.68,10.35,5.8,15.31,8.99c4.98,3.21,10.48,5.32,16.24,6.66
		c11.65,2.71,24.26,2.51,34.78,8.84C446.46,742.42,451.5,733.78,445.98,730.46z"/>
	<path class="st6" d="M389.93,676.03c-9.98,0.24-20.13,1.02-30.1,0.62c-4.98-0.2-8.41-1.55-12.01-4.98c-2.55-2.42-5-4.9-8.1-6.64
		c-7.19-4.04-15.77-4.5-23.82-4c-8.84,0.55-17.69,1.77-26.42,3.25c-26.74,4.51-52.78,12.88-77.21,24.6c0.85-1.7,0.85-3.83-0.74-5.65
		c-8.54-9.72-20.27-20.86-34.37-18.62c-6.38,1.01-11.29,4.92-16.35,8.61c-6.08,4.43-10.69,5.74-17.38,1.52
		c-12.49-7.87-22.67-18.76-36.51-24.48c-14.23-5.88-30.01-6.26-45.03-3.68c-18.42,3.16-35.59,11.19-52.43,18.96
		c-5.84,2.69-0.76,11.32,5.05,8.63c17.94-8.28,36.56-17,56.49-18.8c9.35-0.84,18.81-0.28,27.81,2.53
		c8.93,2.79,16.56,8.13,23.89,13.79c6.57,5.08,13.16,11.25,20.94,14.41c7.28,2.96,14.25,1.22,20.56-3.06
		c6.25-4.24,11.93-10.33,20.18-8.27c8.24,2.06,14.72,9.4,20.1,15.53c0.64,0.73,1.34,1.18,2.05,1.42
		c-6.69,3.39-13.25,7.02-19.66,10.9c-3.52,2.13-2.72,6.44-0.25,8.39c-3.75,0-7.49-0.01-11.24-0.01c-2.65,0-5.3,0-7.95-0.01
		c-0.7,0-3.5-0.2-4.58,0.01c0.15-0.78,0.13-2.34,0.18-2.81c0.18-1.67,0.38-3.25,0.21-4.93c-0.35-3.39-2-6.25-4.76-8.24
		c-5.86-4.22-14.86-4.39-21.79-4.58c-17.37-0.45-34.62,4.29-49.45,13.26c-5.5,3.33-0.48,11.98,5.05,8.63
		c14.14-8.55,30.39-12.72,46.91-11.8c3.64,0.2,7.54,0.43,11.04,1.53c3.48,1.1,3.16,2.72,2.8,6.11c-0.64,6.05,1.13,11.42,7.77,12.59
		c4.02,0.71,8.54,0.22,12.6,0.22c4.63,0,9.27,0.01,13.9,0.01c9.27,0.01,18.54,0.02,27.81,0.03c9.27,0.01,18.54,0.02,27.81,0.03
		c7.47,0.01,18.21-1.6,24.23,3.9c4.74,4.34,11.83-2.72,7.07-7.07c-6.12-5.59-13.82-6.69-21.84-6.82
		c-9.77-0.15-19.56-0.02-29.33-0.03c-10.24-0.01-20.49-0.02-30.73-0.03c30.65-18.51,64.52-31.14,99.84-37.1
		c8.62-1.45,17.4-2.69,26.14-3.01c8.67-0.31,15.59,1.12,21.92,7.28c5.94,5.78,12.14,8.31,20.45,8.46c9.74,0.18,19.55-0.4,29.28-0.63
		C396.35,685.88,396.37,675.87,389.93,676.03z"/>
</g>
<path class="st6" d="M553.88,672.08c-10.23-8.19-22.46-7.15-34.83-6.85c-1.85,0.04-7.41,0.87-8.8-0.6c-1.25-1.33-0.46-4.86-0.37-6.4
	c0.28-4.92,0.37-10.2-3.18-14.09c-3.92-4.29-9.92-4.67-15.36-4.55c-7.38,0.16-14.79,1.04-22.02,2.5
	c-14.06,2.83-27.56,8.21-39.86,15.57c-5.52,3.3-0.5,11.95,5.05,8.63c11.37-6.8,23.64-11.67,36.62-14.38
	c6.65-1.39,13.42-2.18,20.22-2.32c2-0.04,5.5-0.52,7.25,0.73c1.91,1.37,1.51,4.01,1.41,6.08c-0.19,4.21-0.87,8.75,1.23,12.64
	c2.41,4.46,6.99,5.91,11.77,6.18c10.68,0.6,24.67-3.37,33.8,3.94C551.79,683.13,558.91,676.1,553.88,672.08z"/>
<path class="st7" d="M77.2,75.84c6.31-1.9,12.7-3.58,19.13-5.02c9.72-2.18,19.93-3.81,29.55-1.23c9.62,2.58,18.48,10.4,19.3,20.33
	c0.76,9.27-5.27,17.53-10.45,25.26c-11.8,17.63-20.56,37.3-25.75,57.87c-0.74,2.92-1.33,6.27,0.41,8.73
	c1.96,2.76,5.88,3.06,9.26,3.09c9.84,0.09,19.68,0.18,29.53,0.27c4.36,21.48-8.86,42.2-21.45,60.14c-2.87,4.09-5.84,8.28-9.99,11.07
	c-4.98,3.34-11.2,4.34-17.19,4.27c-25.84-0.27-49.99-20.86-54.36-46.33c-2.36-13.76,0.39-28.53-5.15-41.34
	c-2.07-4.79-5.33-9.63-4.34-14.76c1.39-7.16,10.05-10.3,13.77-16.57c3.37-5.67,2.16-12.8,2.54-19.39
	c0.64-11.2,7.66-16.81,11.35-26.4C67.26,85.74,64.55,79.65,77.2,75.84z"/>
<path class="st8" d="M420.37,21.13c2.22-1.16,4.74-2.28,7.14-1.58c2.28,0.66,3.79,2.77,5.05,4.79c5.53,8.9,9.53,18.75,11.79,28.98
	c1.16,5.27,2.28,11.28,6.84,14.16c3.07,1.94,6.94,1.9,10.57,1.8c6.65-0.18,13.31-0.37,19.96-0.55c6.68-0.18,15.35,1.11,16.67,7.66
	c1.52,7.55-9.03,14.36-6.09,21.47c12.75,2.37,25.38,5.37,37.83,8.98c3.44,1,7.15,2.24,9.14,5.22c1.61,2.4,1.77,5.47,1.8,8.36
	c0.07,8.2-0.54,16.4-1.82,24.5c-28.82,0.05-57.63,0.1-86.45,0.16c-1.64,0-3.39-0.02-4.76-0.93c-1.48-0.98-2.18-2.77-2.61-4.48
	c-2.36-9.32,1.06-19.85,8.44-26.01c2.57-2.14,5.94-4.81,4.92-8c-0.41-1.27-1.48-2.22-2.59-2.97c-11.83-8.02-29.83-0.2-41.23-8.83
	c-5.25-3.97-7.71-10.5-11-16.2c-3.29-5.7-8.68-11.29-15.24-10.84c-6.07,0.41-12.78,11.9-18.14,10.02
	c-5.99-2.09,5.11-15.42,7.56-18.84C389.14,42.67,403.66,29.87,420.37,21.13z"/>
<rect x="221" y="781" class="st9" width="296" height="48"/>
<text transform="matrix(1 0 0 1 221 823.5996)" class="st10 st11">P M R</text>
</svg>
