<?xml version="1.0" encoding="utf-8"?>
<!-- Generator: Adobe Illustrator 25.4.1, SVG Export Plug-In . SVG Version: 6.00 Build 0)  -->
<svg version="1.1" id="Layer_1" xmlns="http://www.w3.org/2000/svg" xmlns:xlink="http://www.w3.org/1999/xlink" x="0px" y="0px"
	 viewBox="0 0 595.28 841.89" style="enable-background:new 0 0 595.28 841.89;" xml:space="preserve">
<style type="text/css">
	.st0{fill:#009640;stroke:#000000;stroke-miterlimit:10;}
	.st1{fill:#FFED00;stroke:#000000;stroke-miterlimit:10;}
	.st2{fill:#FFFFFF;stroke:#000000;stroke-miterlimit:10;}
	.st3{fill:#E71D73;stroke:#000000;stroke-miterlimit:10;}
	.st4{fill:#312783;stroke:#000000;stroke-miterlimit:10;}
	.st5{fill:#36A9E1;stroke:#000000;stroke-miterlimit:10;}
	.st6{fill:#95C11F;stroke:#000000;stroke-miterlimit:10;}
	.st7{fill:#009FE3;stroke:#000000;stroke-miterlimit:10;}
	.st8{fill:#CA9E67;stroke:#000000;stroke-miterlimit:10;}
</style>
<polygon class="st0" points="86,89 219,90 216,248 84,247 "/>
<polygon class="st1" points="85,434 84,247 137,246 135,433 "/>
<polygon class="st2" points="122,126 182,127 182,196 119,193 "/>
<path class="st3" d="M250,242c8,1,190,5,190,5l-8,211h-60l6-160h-38l-4,157h-46l5-160l-40,3l-6,151l-33,3l8-212L250,242z"/>
<polygon class="st4" points="461,453 458,315 560,320 562,359 497,362 496,456 "/>
<polyline class="st5" points="458,315 527,270 587,273 560,320 "/>
<polyline class="st4" points="562,359 589,311 586,269 "/>
<path class="st1" d="M567,314"/>
<polyline class="st4" points="497,452 528,414 527,360 "/>
<polyline class="st6" points="85,85 196,25 323,30 317.95,32.91 219,90 "/>
<polyline class="st7" points="216,248 321,165 318,29 "/>
<polyline class="st6" points="135,433 194,349 193,248 "/>
<polyline class="st7" points="225,236 466,128 584,140 580.32,142.74 440,247 "/>
<polyline class="st7" points="585,145 582,249 566,270 "/>
<line class="st7" x1="431" y1="453" x2="460" y2="407"/>
<line class="st8" x1="247" y1="445" x2="292" y2="407"/>
<line class="st8" x1="336" y1="455" x2="375" y2="406"/>
</svg>
